#!OML:ASF H:\ManfredETheater\Project 1\Capture day 1\Session 1\subject.ASF
:FULLY-SPECIFIED
:DEGREES
351
root 1.14053 15.9513 -37.7328 -151.126 6.55542 180.121
lowerback 18.2825 0.41939 4.49656
upperback -2.36886 1.88471 1.64665
thorax -12.9028 0.657903 -1.27363
lowerneck -18.4662 -0.417141 -1.7627
upperneck -3.70474 0.751806 -0.839182
head 1.96014 0.757509 0.103414
rclavicle 2.38542e-014 5.64548e-014
rhumerus -29.5746 14.6179 -94.2515
rradius 106.255
rwrist -15.5065
rhand -22.6016 10.6094
rfingers 7.12502
rthumb 3.82782 -19.336
lclavicle 2.38542e-014 5.64548e-014
lhumerus -69.7495 -14.5959 96.1735
lradius 93.3465
lwrist 19.3572
lhand -19.3243 -11.2065
lfingers 7.12502
lthumb 6.99208 18.6581
rfemur -24.4724 -3.96377 22.876
rtibia 53.8621
rfoot -29.7749 -10.4902
rtoes -48.6528
lfemur -62.912 7.65515 -17.9926
ltibia 103.504
lfoot -9.78689 -6.22232
ltoes -5.94167
352
root 1.19083 15.9778 -38.2259 -151.176 6.21117 180.107
lowerback 17.7487 0.698258 4.54505
upperback -2.5467 2.21017 1.47883
thorax -12.7663 0.79508 -1.5686
lowerneck -18.4373 -0.795985 -1.89426
upperneck -3.54031 0.258186 -0.601278
head 2.01431 0.513926 0.168417
rclavicle 1.94809e-014 1.51076e-014
rhumerus -29.1439 15.8757 -93.9307
rradius 110.799
rwrist -14.8895
rhand -22.1539 11.0935
rfingers 7.12502
rthumb 4.26014 -18.8437
lclavicle 1.94809e-014 1.51076e-014
lhumerus -73.0167 -15.491 96.298
lradius 96.1722
lwrist 19.6965
lhand -18.6946 -11.0574
lfingers 7.12502
lthumb 7.59996 18.7861
rfemur -20.9425 -3.51744 22.723
rtibia 50.3592
rfoot -28.1598 -9.57171
rtoes -48.9269
lfemur -66.1073 7.88873 -18.2889
ltibia 103.514
lfoot -10.9862 -6.28181
ltoes -6.67648
353
root 1.2422 16.0083 -38.731 -151.307 5.69503 180.089
lowerback 17.2461 0.919251 4.61375
upperback -2.71247 2.47553 1.36414
thorax -12.6363 0.907775 -1.79542
lowerneck -18.4252 -1.15356 -2.03928
upperneck -3.33784 -0.206429 -0.39616
head 2.08642 0.282228 0.227087
rclavicle 8.74653e-015 -4.69132e-014
rhumerus -28.8725 17.0306 -93.4541
rradius 115.058
rwrist -14.1673
rhand -21.8087 11.6903
rfingers 7.12502
rthumb 4.59346 -18.2399
lclavicle 8.74653e-015 -4.69132e-014
lhumerus -76.0577 -16.1063 96.3475
lradius 98.6076
lwrist 19.4345
lhand -18.2601 -11.0863
lfingers 7.12502
lthumb 8.01929 18.7415
rfemur -17.2566 -2.96113 22.6748
rtibia 46.6605
rfoot -25.9483 -8.26128
rtoes -48.9846
lfemur -69.0064 7.92131 -18.6087
ltibia 103.016
lfoot -12.0455 -6.48407
ltoes -7.46102
354
root 1.29437 16.0437 -39.2486 -151.52 5.04282 180.08
lowerback 16.7865 1.07711 4.6952
upperback -2.86647 2.67109 1.29913
thorax -12.5225 0.990953 -1.95335
lowerneck -18.4318 -1.47164 -2.17589
upperneck -3.10321 -0.622099 -0.221532
head 2.17416 0.0723911 0.277599
rclavicle -1.70955e-014 -2.78299e-014
rhumerus -28.7896 18.0729 -92.9273
rradius 118.934
rwrist -13.4458
rhand -21.5609 12.5237
rfingers 7.12502
rthumb 4.83276 -17.4012
lclavicle -1.70955e-014 -2.78299e-014
lhumerus -78.8451 -16.4216 96.3043
lradius 100.653
lwrist 18.7765
lhand -18.0339 -11.2963
lfingers 7.12502
lthumb 8.23764 18.5231
rfemur -13.4319 -2.2366 22.7495
rtibia 42.7636
rfoot -22.9921 -6.54666
rtoes -48.7229
lfemur -71.5472 7.79249 -18.9466
ltibia 102.031
lfoot -12.9859 -6.85974
ltoes -8.21911
